<?xml version="1.0" encoding="UTF-8"?>
<svg width="1189px" height="500px" viewBox="0 0 1189 500" version="1.1" xmlns="http://www.w3.org/2000/svg" xmlns:xlink="http://www.w3.org/1999/xlink">
    <!-- Generator: Sketch 50.2 (55047) - http://www.bohemiancoding.com/sketch -->
    <title>Artboard</title>
    <desc>Created with Sketch.</desc>
    <defs>
        <linearGradient x1="50%" y1="0%" x2="50%" y2="100%" id="linearGradient-1">
            <stop stop-color="#fce93a" offset="0%"></stop>
            <stop stop-color="#fdd528" offset="50%"></stop>
            <stop stop-color="#ffaa00" offset="100%"></stop>
        </linearGradient>
        <linearGradient x1="50%" y1="0%" x2="50%" y2="100%" id="linearGradient-2">
            <stop stop-color="#fce93a" offset="0%"></stop>
            <stop stop-color="#fdd528" offset="100%"></stop>
        </linearGradient>
    </defs>
    <g id="Artboard"  stroke="none" stroke-width="1" fill="none" fill-rule="evenodd">
        <path d="M55.1237113,111 L42.8762887,111 C34.1065292,111 27,118.161905 27,127 C27,135.838095 34.1065292,143 42.8762887,143 L55.1237113,143 C63.8934708,143 71,135.838095 71,127 C71,118.161905 63.8934708,111 55.1237113,111 Z" id="Shape" fill="url(#linearGradient-2)" fill-rule="nonzero"></path>
        <path d="M423.158469,97.1023392 C492.330526,166.973684 492.180478,280.21345 423.308517,349.181287 L329.228517,443.597953 C320.975885,452.030702 309.572249,457 297.718469,457 C285.864689,457 274.6111,452.331871 266.208421,443.899123 L171.828325,349.181287 C138.217608,315.450292 119.761722,270.726608 119.761722,222.690058 C119.761722,207.179825 111.208995,204.017544 109.858565,203.716374 C103.406507,201.758772 98.7550239,195.73538 98.7550239,188.657895 C98.7550239,179.923977 105.807273,172.846491 114.510048,172.846491 L116.160574,172.695906 C124.413206,172.244152 131.015311,165.317251 131.015311,156.884503 C131.015311,148.451754 124.413206,141.524854 116.160574,140.922515 L98.7550239,140.922515 C90.0522488,140.922515 83,133.845029 83,125.111111 C83,116.377193 90.0522488,109.299708 98.7550239,109.299708 L135.216651,108.998538 L139.568038,108.998538 C148.270813,108.998538 155.323062,101.921053 155.323062,93.1871345 C155.323062,84.4532164 148.270813,77.375731 139.568038,77.375731 L135.216651,76.9239766 L129.214737,76.9239766 C120.511962,76.9239766 113.459713,69.8464912 113.459713,61.1125731 C113.459713,52.378655 120.511962,45.3011696 129.214737,45.3011696 L287.21512,45.3011696 C290.516172,45.1505848 293.967273,45 297.268325,45 C344.533397,45 389.097608,63.371345 423.158469,97.1023392 Z M296.518086,340.899123 C355.937033,340.899123 406.053014,298.133041 415.355981,239.254386 C417.306603,227.358187 409.204019,216.214912 397.350239,214.25731 C385.496459,212.299708 374.392919,220.431287 372.442297,232.327485 C366.440383,269.973684 334.330144,297.229532 296.368038,297.229532 C258.405933,297.229532 226.295694,269.973684 220.29378,232.327485 C218.343158,220.431287 207.239617,212.299708 195.385837,214.25731 C183.532057,216.214912 175.429474,227.358187 177.380096,239.254386 C186.983158,298.133041 236.949091,340.899123 296.518086,340.899123 Z" id="Combined-Shape" fill="url(#linearGradient-1)" fill-rule="nonzero"></path>
        <text id="Comida-en-la-U" font-family="MuseoSansRounded-900, Museo Sans Rounded" font-size="180" font-weight="bold" line-spacing="156" fill="#ffffff">
            <tspan x="496" y="258">Comida</tspan>
            <tspan x="496" y="414">e</tspan>
            <tspan x="594.64" y="414" letter-spacing="-7.79999971">n l</tspan>
            <tspan x="781.300001" y="414">a U</tspan>
        </text>
    </g>
</svg>