<?xml version="1.0" encoding="utf-8"?>
<!-- Generator: Adobe Illustrator 19.0.0, SVG Export Plug-In . SVG Version: 6.00 Build 0)  -->
<svg version="1.1" id="Capa_1" xmlns="http://www.w3.org/2000/svg" xmlns:xlink="http://www.w3.org/1999/xlink" x="0px" y="0px"
	 viewBox="0 0 308.3 283.7" style="enable-background:new 0 0 308.3 283.7;" xml:space="preserve">
<style type="text/css">
	.st0{fill:#7620AD;}
</style>
<path id="XMLID_5_" class="st0" d="M22.6,49.7h-8.1C8.7,49.5,3.8,54.1,3.6,59.9C3.4,65.7,8,70.6,13.8,70.8c0.2,0,0.4,0,0.6,0h8.1
	c5.8,0.2,10.7-4.4,10.9-10.2S29,49.9,23.2,49.7C23,49.7,22.8,49.7,22.6,49.7z"/>
<path id="XMLID_2_" class="st0" d="M268.3,40.6l-0.2-0.2C245.9,18.4,215.8,6,184.5,6c-2.2,0-4.5,0.1-6.7,0.2H72.4
	c-5.8,0.2-10.4,5-10.2,10.9c0.2,5.6,4.6,10,10.2,10.2h4v0.2h2.9c5.8,0.2,10.4,5,10.2,10.9c-0.2,5.6-4.6,10-10.2,10.2h-2.9v0.2H52.1
	c-5.8,0.2-10.4,5-10.2,10.9c0.2,5.6,4.6,10,10.2,10.2h11.6V70c5.8,0.4,10.2,5.3,9.9,11.1c-0.3,5.3-4.6,9.5-9.9,9.9v0.1h-1.1
	c-5.8,0-10.5,4.8-10.5,10.6c0,4.6,3,8.6,7.3,10l0,0h0.1c0.8,0.2,6.5,2.3,6.5,12.6c0,0.1,0,0.2,0,0.3c-0.1,31.4,12.4,61.6,34.6,83.8
	l62.9,62.9c5.6,5.6,13.1,8.7,21,8.7c7.9,0,15.5-3.2,21-8.9l62.7-62.7C314.3,162.3,314.4,87,268.3,40.6z M263.2,135
	c-7.1,43.8-48.4,73.6-92.2,66.5c-34.2-5.5-60.9-32.3-66.5-66.5c-1.5-7.9,3.7-15.4,11.6-16.9s15.4,3.7,16.9,11.6
	c0,0.2,0.1,0.5,0.1,0.7c4.6,28,31,47,59,42.5c21.8-3.6,38.9-20.7,42.5-42.5c1.5-7.9,9.1-13.1,16.9-11.6
	C259.1,120.3,264.3,127.4,263.2,135z"/>
</svg>
