<?xml version="1.0" encoding="utf-8"?>
<!-- Generator: Adobe Illustrator 19.0.0, SVG Export Plug-In . SVG Version: 6.00 Build 0)  -->
<svg version="1.1" id="Capa_1" xmlns="http://www.w3.org/2000/svg" xmlns:xlink="http://www.w3.org/1999/xlink" x="0px" y="0px"
	 viewBox="9 82 263 275.5" style="enable-background:new 9 82 263 275.5;" xml:space="preserve">
<style type="text/css">
	.st0{fill:#FCE93A;}
</style>
<title>Mesa de trabajo 48 copia 2</title>
<path class="st0" d="M156.4,210.1h-7.9c-5.7,0-10.3,4.6-10.3,10.3c0,5.7,4.6,10.3,10.3,10.3h7.9c5.7,0,10.3-4.6,10.3-10.3
	C166.7,214.7,162.1,210.1,156.4,210.1C156.4,210.1,156.4,210.1,156.4,210.1z"/>
<path class="st0" d="M232,120.5l-0.2-0.2c-21.7-21.5-51-33.6-81.6-33.6c-2.2,0-4.4,0.1-6.5,0.2H40.9c-5.7,0-10.3,4.6-10.3,10.3
	c0,5.7,4.6,10.3,10.3,10.3c0,0,0,0,0,0h3.9v0.2h2.8c5.7,0,10.3,4.6,10.3,10.3c0,5.7-4.6,10.3-10.3,10.3h-2.8v0.2H21.1
	c-5.7,0-10.3,4.6-10.3,10.3c0,5.7,4.6,10.3,10.3,10.3c0,0,0,0,0,0h11.3v0.1c5.7,0.3,10,5.1,9.7,10.8c-0.3,5.2-4.5,9.4-9.7,9.7v0.1
	h-1.1c-5.7,0-10.3,4.6-10.3,10.3c0,4.5,2.9,8.4,7.2,9.8l0,0h0.1c0.7,0.2,6.3,2.3,6.3,12.3c0,0.1,0,0.2,0,0.2
	c-0.1,30.7,12.1,60.1,33.8,81.7l61.4,61.4c5.4,5.5,12.8,8.5,20.4,8.5c7.7,0,15.1-3.2,20.5-8.7l61.1-61.2
	C276.9,239.2,276.9,165.8,232,120.5z M227,212.6c-7,42.8-47.3,71.8-90,64.8c-33.3-5.4-59.4-31.5-64.8-64.8c-1.2-7.7,4-15,11.7-16.2
	c7.7-1.2,15,4,16.2,11.7l0,0c4.4,27.3,30.2,45.9,57.5,41.5c21.3-3.5,38-20.2,41.5-41.5c1.2-7.7,8.5-13,16.2-11.7
	C223,197.6,228.3,204.9,227,212.6L227,212.6L227,212.6z"/>
</svg>
