<?xml version="1.0" encoding="utf-8"?>
<!-- Generator: Adobe Illustrator 19.0.0, SVG Export Plug-In . SVG Version: 6.00 Build 0)  -->
<svg version="1.1" id="Capa_1" xmlns="http://www.w3.org/2000/svg" xmlns:xlink="http://www.w3.org/1999/xlink" x="0px" y="0px"
	 viewBox="141 210 675 86" style="enable-background:new 141 210 675 86;" xml:space="preserve">
<style type="text/css">
	.st0{fill:#7620AD;}
</style>
<g>
	<g>
		<path class="st0" d="M203.9,215.8c11.2,0,19.1,4,23.4,6.9c2.9,2,3.1,4.8,1.2,7.8l-2.5,4.2c-1.9,3.2-4.5,3.5-7.6,1.5
			c-3.4-1.9-8.2-4.1-13.6-4.1c-14.6,0-20.6,10.3-20.6,20.8c0,10.8,6.5,21.9,20.6,21.9c6.1,0,11.4-2.8,14.9-5.2c3.1-2.1,5.7-2,7.9,1
			l2.9,4c1.9,2.9,1.8,5.7-0.9,7.9c-4.6,3.6-13.2,8.7-25.5,8.7c-23.5,0-38.2-16.2-38.2-37.8C165.6,232.1,181.4,215.8,203.9,215.8z"/>
		<path class="st0" d="M264.7,236.2c16.6,0,29.9,11.1,29.9,27.6c0,16.4-13.3,27.3-29.8,27.3S235,280.2,235,263.8
			C235.1,247.3,248.3,236.2,264.7,236.2z M264.8,276.5c6.4,0,11.9-4.8,11.9-12.6c0-8-5.5-13-11.9-13s-11.9,5-11.9,13
			C252.9,271.7,258.4,276.5,264.8,276.5z"/>
		<path class="st0" d="M302.3,243c0-3.7,1.9-5.6,5.6-5.6h5.7c3.7,0,5.5,1.9,5.5,5.6v0.9c0,0.5-0.1,1.3-0.1,1.3h0.2
			c2.4-3.7,7.3-9.1,15.6-9.1c6.6,0,11.9,3,14.7,8.9h0.2c2.8-4.4,9-8.9,16.8-8.9c9.6,0,17,5.2,17,19.7v28.5c0,3.7-1.9,5.6-5.6,5.6
			h-6.4c-3.7,0-5.6-1.9-5.6-5.6v-25.5c0-3.9-0.7-6.6-4.1-6.6c-7.6,0-10.1,7.6-10.1,15.5v16.6c0,3.7-1.9,5.6-5.6,5.6h-6.4
			c-3.7,0-5.6-1.9-5.6-5.6v-25.5c0-3.9-0.7-6.6-4.1-6.6c-8.1,0-10.1,8.3-10.1,15.5v16.6c0,3.7-1.9,5.6-5.6,5.6h-6.4
			c-3.7,0-5.6-1.9-5.6-5.6V243z"/>
		<path class="st0" d="M393.6,243c0-3.7,1.9-5.6,5.6-5.6h6.4c3.7,0,5.6,1.9,5.6,5.6v41.3c0,3.7-1.9,5.6-5.6,5.6h-6.4
			c-3.7,0-5.6-1.9-5.6-5.6V243z M393.8,225.2v-2.5c0-3.7,1.9-5.6,5.6-5.6h6c3.7,0,5.6,1.9,5.6,5.6v2.5c0,3.7-1.9,5.6-5.6,5.6h-6
			C395.7,230.8,393.8,228.9,393.8,225.2z"/>
		<path class="st0" d="M443.1,236.2c10.6,0,13.8,5.2,13.8,5.2h0.2c0,0-0.1-1-0.1-2.3v-16.4c0-3.7,1.9-5.6,5.6-5.6h6.4
			c3.7,0,5.6,1.9,5.6,5.6v61.7c0,3.7-1.9,5.6-5.6,5.6h-5.3c-3.7,0-5.6-1.7-5.6-5.1v-0.6c0-0.2,0.1-0.7,0.1-0.7H458
			c0,0-4.4,7.6-15.2,7.6c-14.3,0-23.7-11.2-23.7-27.5C419.1,247,429.1,236.2,443.1,236.2z M447.2,276.6c5.3,0,10.3-3.9,10.3-13
			c0-6.3-3.4-12.5-10.3-12.5c-5.5,0-10.3,4.5-10.3,12.5C436.9,271.5,441.1,276.6,447.2,276.6z"/>
		<path class="st0" d="M511.5,257.2h1.5v-0.9c0-4.4-3.6-5.8-7.4-5.8c-3.4,0-6.8,1.1-9.5,2.3c-3.4,1.4-5.9,0.8-7.5-2.4l-1.2-2.5
			c-1.5-3.2-0.9-5.9,2.2-7.5c4-1.8,10.1-4.1,17.6-4.1c14.5,0,23.5,8.1,23.5,21.4v26.7c0,3.7-1.9,5.6-5.6,5.6h-4.9
			c-3.7,0-5.6-1.8-5.6-5.7v-0.4c0-0.6,0.1-1,0.1-1h-0.2c0,0-5,8.4-15.5,8.4c-10.1,0-17.1-6.9-17.1-16
			C481.8,261.1,498.5,257.2,511.5,257.2z M504.2,278c5.1,0,9-5,9-9.3v-1.4h-1.6c-5.4,0-12.3,1.4-12.3,6.2
			C499.2,276,501,278,504.2,278z"/>
		<path class="st0" d="M567.1,236c15.6,0,24.3,11,24.3,25.1c0,2.8-2.4,5.8-5.9,5.8h-27.6c1.3,6.4,6.6,9.4,12.2,9.4
			c3.6,0,6.9-1.1,9.6-2.4c3.4-1.5,5.8-1.1,7.5,2.1l1.4,2.7c1.6,3.2,1.1,5.9-1.9,7.7c-3.8,2.1-10,4.7-18.1,4.7
			c-18.8,0-28.9-13.6-28.9-27.5C539.8,248,550.2,236,567.1,236z M574,256.8c0-4.3-2.8-7.9-7.2-7.9c-5.1,0-7.5,3.7-8.5,7.9H574z"/>
		<path class="st0" d="M598.9,242.8c0-3.7,1.9-5.6,5.6-5.6h5.7c3.7,0,5.5,1.9,5.5,5.6v0.9c0,0.5-0.1,1.3-0.1,1.3h0.2
			c2.4-4.1,7.4-9.1,16.7-9.1c10.6,0,18.9,4.9,18.9,19.7v28.5c0,3.7-1.9,5.6-5.6,5.6h-6.4c-3.7,0-5.6-1.9-5.6-5.6v-25.2
			c0-4.9-1.9-6.9-5.8-6.9c-7.9,0-11.4,6.5-11.4,14v18.2c0,3.7-1.9,5.6-5.6,5.6h-6.4c-3.7,0-5.6-1.9-5.6-5.6v-41.4H598.9z"/>
		<g>
			<path class="st0" d="M663.5,270.3v-44.1c0-3.7,1.9-5.6,5.6-5.6h6.4c3.7,0,5.6,1.9,5.6,5.6v43.3"/>
			<path class="st0" d="M681.1,240v44.1c0,3.7-1.9,5.6-5.6,5.6h-6.4c-3.7,0-5.6-1.9-5.6-5.6v-43.3"/>
		</g>
		<path class="st0" d="M719.2,257h1.5v-0.9c0-4.4-3.6-5.8-7.4-5.8c-3.4,0-6.8,1.1-9.5,2.3c-3.4,1.4-5.9,0.8-7.5-2.4l-1.2-2.5
			c-1.5-3.2-0.9-5.9,2.2-7.5c4-1.8,10.1-4.1,17.6-4.1c14.5,0,23.5,8.1,23.5,21.4v26.7c0,3.7-1.9,5.6-5.6,5.6h-4.9
			c-3.7,0-5.6-1.8-5.6-5.7v-0.4c0-0.6,0.1-1,0.1-1h-0.2c0,0-5,8.4-15.5,8.4c-10.1,0-17.1-6.9-17.1-16
			C689.5,260.8,706.2,257,719.2,257z M712,277.8c5.1,0,9-5,9-9.3v-1.4h-1.7c-5.4,0-12.3,1.4-12.3,6.2
			C707,275.7,708.7,277.8,712,277.8z"/>
		<path class="st0" d="M748.9,226.2c0-3.7,1.9-5.6,5.6-5.6h6.6c3.7,0,5.6,1.9,5.6,5.6v36.7c0,7.7,5,11.7,12.6,11.7
			s12.6-4.1,12.6-11.7v-36.7c0-3.7,1.9-5.6,5.6-5.6h6.6c3.7,0,5.6,1.9,5.6,5.6v36.7c0,16.4-12,28-30.4,28c-18.6,0-30.6-11.6-30.6-28
			v-36.7H748.9z"/>
	</g>
	<g>
		<g>
			<path class="st0" d="M150.6,229.2H148c-1.8,0-3.3,1.5-3.3,3.3s1.5,3.3,3.3,3.3h2.6c1.8,0,3.3-1.5,3.3-3.3
				S152.4,229.2,150.6,229.2z"/>
		</g>
		<g>
			<path class="st0" d="M204.2,215.8h-37.9c-1.8,0-3.3,1.5-3.3,3.3s1.5,3.3,3.3,3.3h1.3v0.1h0.9c1.8,0,3.3,1.5,3.3,3.3
				s-1.5,3.3-3.3,3.3h-0.9v0.1h-7.7c-1.8,0-3.3,1.5-3.3,3.3s1.5,3.3,3.3,3.3h3.7l0,0c1.7,0.1,3.1,1.5,3.1,3.3s-1.4,3.2-3.1,3.3l0,0
				h-0.3c-1.8,0-3.3,1.5-3.3,3.3s1.5,3.3,3.3,3.3c3-0.2,2.4,4.5,2.4,6.2c0.5-8.4,8.5-20.7,14.9-27.1
				C187.5,221.4,195.1,215.8,204.2,215.8z"/>
		</g>
	</g>
</g>
</svg>
