<?xml version="1.0" encoding="utf-8"?>
<!-- Generator: Adobe Illustrator 19.0.0, SVG Export Plug-In . SVG Version: 6.00 Build 0)  -->
<svg version="1.1" id="Capa_1" xmlns="http://www.w3.org/2000/svg" xmlns:xlink="http://www.w3.org/1999/xlink" x="0px" y="0px"
	 viewBox="141 210 672 80.5" style="enable-background:new 141 210 672 80.5;" xml:space="preserve">
<style type="text/css">
	.st0{fill:#FFFFFF;}
</style>
<g>
	<g>
		<path class="st0" d="M203,213.3c11.2,0,19.1,4,23.4,6.9c2.9,2,3.1,4.8,1.2,7.8l-2.5,4.2c-1.9,3.2-4.5,3.5-7.6,1.5
			c-3.4-1.9-8.2-4.1-13.6-4.1c-14.6,0-20.6,10.3-20.6,20.8c0,10.8,6.5,21.9,20.6,21.9c6.1,0,11.4-2.8,14.9-5.2c3.1-2.1,5.7-2,7.9,1
			l2.9,4c1.9,2.9,1.8,5.7-0.9,7.9c-4.6,3.6-13.2,8.7-25.5,8.7c-23.5,0-38.2-16.2-38.2-37.8C164.7,229.6,180.5,213.3,203,213.3z"/>
		<path class="st0" d="M263.8,233.7c16.6,0,29.9,11.1,29.9,27.6c0,16.4-13.3,27.3-29.8,27.3s-29.8-10.9-29.8-27.3
			C234.2,244.8,247.4,233.7,263.8,233.7z M263.9,274c6.4,0,11.9-4.8,11.9-12.6c0-8-5.5-13-11.9-13c-6.4,0-11.9,5-11.9,13
			C252,269.2,257.5,274,263.9,274z"/>
		<path class="st0" d="M301.4,240.5c0-3.7,1.9-5.6,5.6-5.6h5.7c3.7,0,5.5,1.9,5.5,5.6v0.9c0,0.5-0.1,1.3-0.1,1.3h0.2
			c2.4-3.7,7.3-9.1,15.6-9.1c6.6,0,11.9,3,14.7,8.9h0.2c2.8-4.4,9-8.9,16.8-8.9c9.6,0,17,5.2,17,19.7v28.5c0,3.7-1.9,5.6-5.6,5.6
			h-6.4c-3.7,0-5.6-1.9-5.6-5.6v-25.5c0-3.9-0.7-6.6-4.1-6.6c-7.6,0-10.1,7.6-10.1,15.5v16.6c0,3.7-1.9,5.6-5.6,5.6h-6.4
			c-3.7,0-5.6-1.9-5.6-5.6v-25.5c0-3.9-0.7-6.6-4.1-6.6c-8.1,0-10.1,8.3-10.1,15.5v16.6c0,3.7-1.9,5.6-5.6,5.6H307
			c-3.7,0-5.6-1.9-5.6-5.6V240.5z"/>
		<path class="st0" d="M392.7,240.5c0-3.7,1.9-5.6,5.6-5.6h6.4c3.7,0,5.6,1.9,5.6,5.6v41.3c0,3.7-1.9,5.6-5.6,5.6h-6.4
			c-3.7,0-5.6-1.9-5.6-5.6V240.5z M392.9,222.7v-2.5c0-3.7,1.9-5.6,5.6-5.6h6c3.7,0,5.6,1.9,5.6,5.6v2.5c0,3.7-1.9,5.6-5.6,5.6h-6
			C394.8,228.3,392.9,226.4,392.9,222.7z"/>
		<path class="st0" d="M442.2,233.7c10.6,0,13.8,5.2,13.8,5.2h0.2c0,0-0.1-1-0.1-2.3v-16.4c0-3.7,1.9-5.6,5.6-5.6h6.4
			c3.7,0,5.6,1.9,5.6,5.6v61.7c0,3.7-1.9,5.6-5.6,5.6h-5.3c-3.7,0-5.6-1.7-5.6-5.1v-0.6c0-0.2,0.1-0.7,0.1-0.7h-0.2
			c0,0-4.4,7.6-15.2,7.6c-14.3,0-23.7-11.2-23.7-27.5C418.2,244.5,428.2,233.7,442.2,233.7z M446.3,274.1c5.3,0,10.3-3.9,10.3-13
			c0-6.3-3.4-12.5-10.3-12.5c-5.5,0-10.3,4.5-10.3,12.5C436,269,440.2,274.1,446.3,274.1z"/>
		<path class="st0" d="M510.6,254.7h1.5v-0.9c0-4.4-3.6-5.8-7.4-5.8c-3.4,0-6.8,1.1-9.5,2.3c-3.4,1.4-5.9,0.8-7.5-2.4l-1.2-2.5
			c-1.5-3.2-0.9-5.9,2.2-7.5c4-1.8,10.1-4.1,17.6-4.1c14.5,0,23.5,8.1,23.5,21.4v26.7c0,3.7-1.9,5.6-5.6,5.6h-4.9
			c-3.7,0-5.6-1.8-5.6-5.7v-0.4c0-0.6,0.1-1,0.1-1h-0.2c0,0-5,8.4-15.5,8.4c-10.1,0-17.1-6.9-17.1-16
			C480.9,258.6,497.6,254.7,510.6,254.7z M503.3,275.5c5.1,0,9-5,9-9.3v-1.4h-1.6c-5.4,0-12.3,1.4-12.3,6.2
			C498.3,273.5,500.1,275.5,503.3,275.5z"/>
		<path class="st0" d="M566.2,233.5c15.6,0,24.3,11,24.3,25.1c0,2.8-2.4,5.8-5.9,5.8H557c1.3,6.4,6.6,9.4,12.2,9.4
			c3.6,0,6.9-1.1,9.6-2.4c3.4-1.5,5.8-1.1,7.5,2.1l1.4,2.7c1.6,3.2,1.1,5.9-1.9,7.7c-3.8,2.1-10,4.7-18.1,4.7
			c-18.8,0-28.9-13.6-28.9-27.5C538.9,245.5,549.3,233.5,566.2,233.5z M573.1,254.3c0-4.3-2.8-7.9-7.2-7.9c-5.1,0-7.5,3.7-8.5,7.9
			H573.1z"/>
		<path class="st0" d="M598,240.3c0-3.7,1.9-5.6,5.6-5.6h5.7c3.7,0,5.5,1.9,5.5,5.6v0.9c0,0.5-0.1,1.3-0.1,1.3h0.2
			c2.4-4.1,7.4-9.1,16.7-9.1c10.6,0,18.9,4.9,18.9,19.7v28.5c0,3.7-1.9,5.6-5.6,5.6h-6.4c-3.7,0-5.6-1.9-5.6-5.6v-25.2
			c0-4.9-1.9-6.9-5.8-6.9c-7.9,0-11.4,6.5-11.4,14v18.2c0,3.7-1.9,5.6-5.6,5.6h-6.4c-3.7,0-5.6-1.9-5.6-5.6v-41.4H598z"/>
		<g>
			<path class="st0" d="M662.6,267.8v-44.1c0-3.7,1.9-5.6,5.6-5.6h6.4c3.7,0,5.6,1.9,5.6,5.6V267"/>
			<path class="st0" d="M680.2,237.5v44.1c0,3.7-1.9,5.6-5.6,5.6h-6.4c-3.7,0-5.6-1.9-5.6-5.6v-43.3"/>
		</g>
		<path class="st0" d="M718.3,254.5h1.5v-0.9c0-4.4-3.6-5.8-7.4-5.8c-3.4,0-6.8,1.1-9.5,2.3c-3.4,1.4-5.9,0.8-7.5-2.4l-1.2-2.5
			c-1.5-3.2-0.9-5.9,2.2-7.5c4-1.8,10.1-4.1,17.6-4.1c14.5,0,23.5,8.1,23.5,21.4v26.7c0,3.7-1.9,5.6-5.6,5.6H727
			c-3.7,0-5.6-1.8-5.6-5.7v-0.4c0-0.6,0.1-1,0.1-1h-0.2c0,0-5,8.4-15.5,8.4c-10.1,0-17.1-6.9-17.1-16
			C688.6,258.3,705.3,254.5,718.3,254.5z M711.1,275.3c5.1,0,9-5,9-9.3v-1.4h-1.7c-5.4,0-12.3,1.4-12.3,6.2
			C706.1,273.2,707.8,275.3,711.1,275.3z"/>
		<path class="st0" d="M748,223.7c0-3.7,1.9-5.6,5.6-5.6h6.6c3.7,0,5.6,1.9,5.6,5.6v36.7c0,7.7,5,11.7,12.6,11.7S791,268,791,260.4
			v-36.7c0-3.7,1.9-5.6,5.6-5.6h6.6c3.7,0,5.6,1.9,5.6,5.6v36.7c0,16.4-12,28-30.4,28c-18.6,0-30.6-11.6-30.6-28v-36.7H748z"/>
	</g>
	<g>
		<g>
			<path class="st0" d="M149.7,226.7h-2.6c-1.8,0-3.3,1.5-3.3,3.3s1.5,3.3,3.3,3.3h2.6c1.8,0,3.3-1.5,3.3-3.3
				C153,228.2,151.5,226.7,149.7,226.7z"/>
		</g>
		<g>
			<path class="st0" d="M203.3,213.3h-37.9c-1.8,0-3.3,1.5-3.3,3.3s1.5,3.3,3.3,3.3h1.3v0.1h0.9c1.8,0,3.3,1.5,3.3,3.3
				s-1.5,3.3-3.3,3.3h-0.9v0.1H159c-1.8,0-3.3,1.5-3.3,3.3s1.5,3.3,3.3,3.3h3.7l0,0c1.7,0.1,3.1,1.5,3.1,3.3s-1.4,3.2-3.1,3.3l0,0
				h-0.3c-1.8,0-3.3,1.5-3.3,3.3s1.5,3.3,3.3,3.3c3-0.2,2.4,4.5,2.4,6.2c0.5-8.4,8.5-20.7,14.9-27.1
				C186.6,218.9,194.2,213.3,203.3,213.3z"/>
		</g>
	</g>
</g>
</svg>
