<?xml version="1.0" encoding="utf-8"?>
<!-- Generator: Adobe Illustrator 19.0.0, SVG Export Plug-In . SVG Version: 6.00 Build 0)  -->
<svg version="1.1" id="Capa_1" xmlns="http://www.w3.org/2000/svg" xmlns:xlink="http://www.w3.org/1999/xlink" x="0px" y="0px"
	 viewBox="93.9 219.1 699 273.5" style="enable-background:new 93.9 219.1 699 273.5;" xml:space="preserve">
<style type="text/css">
	.st0{fill:#FFFFFF;}
	.st1{fill:#FCE93A;}
</style>
<g>
	<g>
		<g>
			<path class="st0" d="M326.5,337.6c-5.7-0.9-11.2,3-12.1,8.7c-3.3,20.5-20.8,35.4-41.6,35.4s-38.3-14.9-41.6-35.4
				c-0.9-5.7-6.3-9.6-12.1-8.7c-5.7,0.9-9.6,6.3-8.7,12.1c5,30.8,31.2,53.1,62.4,53.1s57.4-22.3,62.4-53.1
				C336.2,343.9,332.2,338.5,326.5,337.6z"/>
			<path class="st1" d="M112.5,261.6h-8.1c-5.8,0-10.5,4.7-10.5,10.5s4.7,10.5,10.5,10.5h8.1c5.8,0,10.5-4.7,10.5-10.5
				C123.1,266.3,118.4,261.6,112.5,261.6z"/>
			<path class="st1" d="M358.3,253.7c-0.1-0.1-0.1-0.1-0.2-0.2c-22.5-22.2-52.2-34.4-83.7-34.4c-2.2,0-4.5,0.1-6.7,0.2H162.3
				c-5.8,0-10.5,4.7-10.5,10.5s4.7,10.5,10.5,10.5h4v0.2h2.9c5.8,0,10.5,4.7,10.5,10.5c0,5.8-4.7,10.5-10.5,10.5h-2.9v0.2h-24.2
				c-5.8,0-10.5,4.7-10.5,10.5c0,5.8,4.7,10.5,10.5,10.5h11.6v0.1c5.5,0.3,9.9,4.9,9.9,10.5c0,5.6-4.4,10.2-9.9,10.5v0.1h-1.1
				c-5.8,0-10.5,4.7-10.5,10.5c0,4.7,3.1,8.7,7.4,10l0,0l0,0c0,0,0,0,0.1,0c0.8,0.2,6.5,2.3,6.5,12.6c0,0.1,0,0.2,0,0.2
				c0,31.7,12.3,61.4,34.7,83.8l62.9,62.9c5.6,5.6,13.1,8.7,21,8.7s15.5-3.3,21-8.9l62.7-62.7C404.3,375.3,404.3,300.1,358.3,253.7z
				 M343.3,406.5l-62.9,62.9c-1.6,1.7-3.7,2.6-5.8,2.6c-2.1,0-4.4-0.9-6.1-2.6l-62.9-62.9c-38-38-38-99.8,0-137.7
				c19-19,43.9-28.6,68.9-28.6s49.9,9.6,68.9,28.3C381.3,306.8,381.3,368.6,343.3,406.5z"/>
		</g>
	</g>
	<g>
		<path class="st0" d="M458.4,257.6c11.5,0,19.5,4.1,23.9,7.1c2.9,2.1,3.1,4.9,1.3,7.9l-2.6,4.3c-2,3.2-4.6,3.5-7.8,1.6
			c-3.4-2-8.4-4.2-13.9-4.2c-14.9,0-21.1,10.5-21.1,21.3c0,11.1,6.7,22.4,21.1,22.4c6.3,0,11.7-2.8,15.2-5.3c3.1-2.2,5.8-2.1,8,1
			l2.9,4.1c2,2.9,1.9,5.8-0.9,8c-4.7,3.7-13.5,8.9-26.1,8.9c-24,0-39.1-16.6-39.1-38.7C419.3,274.3,435.3,257.6,458.4,257.6z"/>
		<path class="st0" d="M520.7,278.5c17,0,30.6,11.4,30.6,28.3c0,16.8-13.6,28-30.5,28c-16.9,0-30.5-11.2-30.5-28
			C490.3,289.9,503.9,278.5,520.7,278.5z M520.8,319.7c6.6,0,12.2-4.9,12.2-12.9c0-8.1-5.6-13.3-12.2-13.3s-12.2,5.1-12.2,13.3
			C508.6,314.8,514.2,319.7,520.8,319.7z"/>
		<path class="st0" d="M559.2,285.5c0-3.8,2-5.7,5.7-5.7h5.8c3.8,0,5.6,2,5.6,5.7v0.9c0,0.5-0.1,1.4-0.1,1.4h0.2
			c2.5-3.8,7.5-9.3,16-9.3c6.8,0,12.2,3,15,9.1h0.2c2.8-4.5,9.2-9.1,17.2-9.1c9.8,0,17.4,5.3,17.4,20.1v29.1c0,3.8-2,5.7-5.7,5.7
			h-6.6c-3.8,0-5.7-2-5.7-5.7v-26.1c0-4-0.7-6.8-4.2-6.8c-7.8,0-10.3,7.8-10.3,15.9v17c0,3.8-2,5.7-5.7,5.7h-6.6
			c-3.8,0-5.7-2-5.7-5.7v-26.1c0-4-0.7-6.8-4.2-6.8c-8.2,0-10.3,8.5-10.3,15.9v17c0,3.8-2,5.7-5.7,5.7h-6.6c-3.8,0-5.7-2-5.7-5.7
			V285.5L559.2,285.5z"/>
		<path class="st0" d="M652.5,285.5c0-3.8,2-5.7,5.7-5.7h6.6c3.8,0,5.7,2,5.7,5.7v42.3c0,3.8-2,5.7-5.7,5.7h-6.6
			c-3.8,0-5.7-2-5.7-5.7V285.5z M652.7,267.2v-2.6c0-3.8,2-5.7,5.7-5.7h6.2c3.8,0,5.7,2,5.7,5.7v2.6c0,3.8-2,5.7-5.7,5.7h-6.2
			C654.7,273,652.7,271,652.7,267.2z"/>
		<path class="st0" d="M703.2,278.5c10.9,0,14.1,5.3,14.1,5.3h0.2c0,0-0.1-1-0.1-2.4v-16.8c0-3.8,2-5.7,5.7-5.7h6.6
			c3.8,0,5.7,2,5.7,5.7v63.2c0,3.8-2,5.7-5.7,5.7h-5.4c-3.8,0-5.7-1.8-5.7-5.2v-0.6c0-0.2,0.1-0.7,0.1-0.7h-0.2
			c0,0-4.5,7.8-15.6,7.8c-14.6,0-24.2-11.5-24.2-28.2C678.7,289.6,688.9,278.5,703.2,278.5z M707.4,319.8c5.4,0,10.5-4,10.5-13.3
			c0-6.5-3.4-12.8-10.5-12.8c-5.6,0-10.5,4.6-10.5,12.8C696.9,314.6,701.1,319.8,707.4,319.8z"/>
		<path class="st0" d="M773.2,300h1.6v-0.9c0-4.5-3.7-5.9-7.6-5.9c-3.4,0-7,1.1-9.7,2.4c-3.4,1.5-6.1,0.8-7.7-2.5l-1.3-2.6
			c-1.6-3.2-0.9-6.1,2.3-7.7c4.1-1.9,10.3-4.2,18.1-4.2c14.8,0,24,8.2,24,21.9v27.3c0,3.8-2,5.7-5.7,5.7h-5c-3.8,0-5.7-1.9-5.7-5.8
			v-0.4c0-0.6,0.1-1,0.1-1h-0.2c0,0-5.1,8.6-15.9,8.6c-10.3,0-17.5-7.1-17.5-16.4C742.8,304,760,300,773.2,300z M765.8,321.3
			c5.2,0,9.2-5.1,9.2-9.5v-1.5h-1.7c-5.5,0-12.6,1.5-12.6,6.4C760.7,319.2,762.5,321.3,765.8,321.3z"/>
		<path class="st0" d="M446.2,363.3c16,0,24.8,11.3,24.8,25.7c0,2.8-2.5,5.9-6.1,5.9h-28.3c1.4,6.6,6.8,9.6,12.5,9.6
			c3.7,0,7.1-1.1,9.8-2.5c3.4-1.6,5.9-1.1,7.7,2.2l1.5,2.7c1.7,3.2,1.1,6.1-2,7.8c-3.9,2.2-10.2,4.8-18.5,4.8
			c-19.2,0-29.5-13.9-29.5-28.2C418.2,375.6,428.9,363.3,446.2,363.3z M453.2,384.6c0-4.4-2.8-8-7.4-8c-5.2,0-7.7,3.8-8.7,8H453.2z"
			/>
		<path class="st0" d="M478.7,370.3c0-3.8,2-5.7,5.7-5.7h5.8c3.8,0,5.6,2,5.6,5.7v0.9c0,0.5-0.1,1.4-0.1,1.4h0.2
			c2.5-4.2,7.6-9.3,17.1-9.3c10.9,0,19.3,5,19.3,20.1v29.1c0,3.8-2,5.7-5.7,5.7H520c-3.8,0-5.7-2-5.7-5.7v-25.8c0-5-2-7.1-5.9-7.1
			c-8,0-11.7,6.7-11.7,14.3v18.6c0,3.8-2,5.7-5.7,5.7h-6.6c-3.8,0-5.7-2-5.7-5.7L478.7,370.3L478.7,370.3z"/>
		<path class="st0" d="M559.7,353.3c0-3.8,2-5.7,5.7-5.7h6.6c3.8,0,5.7,2,5.7,5.7v44.3c0,4.1,1.4,5.1,3,5.3c2.5,0.3,4.2,1.8,4.2,4.9
			v5.1c0,3.5-1.7,5.8-5.8,5.8c-9.3,0-19.4-2.3-19.4-20.4V353.3L559.7,353.3z"/>
		<path class="st0" d="M622.8,384.8h1.6v-0.9c0-4.5-3.7-5.9-7.6-5.9c-3.4,0-7,1.1-9.7,2.4c-3.4,1.5-6.1,0.8-7.7-2.5l-1.3-2.6
			c-1.6-3.2-0.9-6.1,2.3-7.7c4.1-1.9,10.3-4.2,18.1-4.2c14.8,0,24,8.2,24,21.9v27.3c0,3.8-2,5.7-5.7,5.7h-5c-3.8,0-5.7-1.9-5.7-5.8
			v-0.4c0-0.6,0.1-1,0.1-1H626c0,0-5.1,8.6-15.9,8.6c-10.3,0-17.5-7.1-17.5-16.4C592.5,388.7,609.6,384.8,622.8,384.8z M615.4,406.1
			c5.2,0,9.2-5.1,9.2-9.5v-1.5h-1.7c-5.5,0-12.6,1.5-12.6,6.4C610.3,404,612.1,406.1,615.4,406.1z"/>
		<path class="st0" d="M673.5,353.3c0-3.8,2-5.7,5.7-5.7h6.8c3.8,0,5.7,2,5.7,5.7v37.5c0,7.8,5.1,12,12.9,12s12.9-4.2,12.9-12v-37.5
			c0-3.8,2-5.7,5.7-5.7h6.8c3.8,0,5.7,2,5.7,5.7v37.5c0,16.8-12.3,28.7-31.1,28.7c-19,0-31.3-11.9-31.3-28.7v-37.5H673.5z"/>
	</g>
</g>
</svg>
