<?xml version="1.0" encoding="UTF-8"?>
<svg width="500px" height="500px" viewBox="0 0 500 500" version="1.1" xmlns="http://www.w3.org/2000/svg" xmlns:xlink="http://www.w3.org/1999/xlink">
    <!-- Generator: Sketch 50.2 (55047) - http://www.bohemiancoding.com/sketch -->
    <title>Artboard</title>
    <desc>Created with Sketch.</desc>
    <defs>
        <linearGradient x1="50%" y1="0%" x2="50%" y2="100%" id="linearGradient-1">
            <stop stop-color="#F86449" offset="0%"></stop>
            <stop stop-color="#FFA900" offset="100%"></stop>
        </linearGradient>
    </defs>
    <g id="Artboard" stroke="none" stroke-width="1" fill="none" fill-rule="evenodd">
        <g id="1_Logo" transform="translate(2.000000, 22.000000)" fill-rule="nonzero">
            <g id="Group">
                <g>
                    <path d="M31.845,73.1309091 L18.48,73.1309091 C8.91,73.1309091 1.155,80.9072727 1.155,90.5036364 C1.155,100.1 8.91,107.876364 18.48,107.876364 L31.845,107.876364 C41.415,107.876364 49.17,100.1 49.17,90.5036364 C49.17,80.9072727 41.415,73.1309091 31.845,73.1309091 Z" id="Shape" fill="#F86845"></path>
                    <path d="M437.25,58.0745455 C513.315,134.845455 513.15,259.267273 437.415,335.045455 L333.96,438.785455 C324.885,448.050909 312.345,453.510909 299.31,453.510909 C286.275,453.510909 273.9,448.381818 264.66,439.116364 L160.875,335.045455 C123.915,297.983636 103.62,248.843636 103.62,196.394545 C103.62,196.394545 103.62,196.229091 103.62,196.063636 C103.62,179.021818 94.215,175.547273 92.895,175.216364 C92.73,175.216364 92.73,175.216364 92.73,175.216364 C85.635,173.065455 80.52,166.447273 80.52,158.670909 C80.52,149.074545 88.275,141.298182 97.845,141.298182 L99.66,141.298182 L99.66,141.132727 C108.735,140.636364 115.995,133.025455 115.995,123.76 C115.995,114.494545 108.735,106.883636 99.66,106.387273 L99.66,106.221818 L80.52,106.221818 C70.95,106.221818 63.195,98.4454545 63.195,88.8490909 C63.195,79.2527273 70.95,71.4763636 80.52,71.4763636 L120.615,71.4763636 L120.615,71.1454545 L125.4,71.1454545 C134.97,71.1454545 142.725,63.3690909 142.725,53.7727273 C142.725,44.1763636 134.97,36.4 125.4,36.4 L120.615,36.4 L120.615,35.9036364 L114.015,35.9036364 C104.445,35.9036364 96.69,28.1272727 96.69,18.5309091 C96.69,8.93454545 104.445,1.15818182 114.015,1.15818182 L287.76,1.15818182 C291.39,0.992727273 295.185,0.827272727 298.815,0.827272727 C350.79,0.827272727 399.795,21.0127273 436.92,57.7436364 C437.085,57.9090909 437.085,57.9090909 437.25,58.0745455 Z M297.99,325.945455 C363.33,325.945455 418.44,278.956364 428.67,214.263636 C430.815,201.192727 421.905,188.949091 408.87,186.798182 C395.835,184.647273 383.625,193.581818 381.48,206.652727 C374.88,248.016364 339.57,277.963636 297.825,277.963636 C256.08,277.963636 220.77,248.016364 214.17,206.652727 C212.025,193.581818 199.815,184.647273 186.78,186.798182 C173.745,188.949091 164.835,201.192727 166.98,214.263636 C177.54,278.956364 232.485,325.945455 297.99,325.945455 Z" id="Combined-Shape" fill="url(#linearGradient-1)"></path>
                </g>
            </g>
        </g>
    </g>
</svg>