<?xml version="1.0" encoding="utf-8"?>
<!-- Generator: Adobe Illustrator 19.0.0, SVG Export Plug-In . SVG Version: 6.00 Build 0)  -->
<svg version="1.1" id="Capa_1" xmlns="http://www.w3.org/2000/svg" xmlns:xlink="http://www.w3.org/1999/xlink" x="0px" y="0px"
	 viewBox="-52 149.5 505.5 495.5" style="enable-background:new -52 149.5 505.5 495.5;" xml:space="preserve">
<style type="text/css">
	.st0{fill:#9013FE;}
	.st1{fill:#FCE93A;}
</style>
<title>UCoins</title>
<g id="Layer_2">
	<g id="UCoins">
		<path class="st0" d="M39,431.9V191.7c0-23.5,18.6-42.2,42.9-42.2c23.2-0.1,42.1,18.5,42.2,41.7c0,0.2,0,0.4,0,0.5v236.7
			c0,90,46.4,137.7,122.5,137.7c75.4,0,121.8-45,121.8-134.2V191.7c0-23.5,18.7-42.2,42.9-42.2c23.2-0.2,42.1,18.5,42.2,41.6
			c0,0.2,0,0.4,0,0.6v236c0,144.6-81.7,217.3-208.3,217.3C119.2,645,39,572.3,39,431.9z"/>
		<path class="st1" d="M181.1,306.3H-16.5c-19.6,0-35.5-15.9-35.5-35.5c0-19.6,15.9-35.5,35.5-35.5h197.6
			c19.6,0,35.5,15.9,35.5,35.5C216.5,290.4,200.7,306.3,181.1,306.3z"/>
		<path class="st1" d="M181.1,402.8H-16.5c-19.6,0-35.5-15.9-35.5-35.5c0-19.6,15.9-35.5,35.5-35.5h197.6
			c19.6,0,35.5,15.9,35.5,35.5C216.5,386.9,200.7,402.8,181.1,402.8z"/>
	</g>
</g>
</svg>
