<?xml version="1.0" encoding="utf-8"?>
<!-- Generator: Adobe Illustrator 19.0.0, SVG Export Plug-In . SVG Version: 6.00 Build 0)  -->
<svg version="1.1" id="Capa_1" xmlns="http://www.w3.org/2000/svg" xmlns:xlink="http://www.w3.org/1999/xlink" x="0px" y="0px"
	 viewBox="1 123.8 613.2 547.2" style="enable-background:new 1 123.8 613.2 547.2;" xml:space="preserve">
<title>Descubre</title>
<g id="Layer_2">
	<g id="Descubre">
		<g>
			<path d="M373,498.7c-64,0-120.5-46.4-131.2-111.5l-0.1-0.4c-2.3-17.1,9.2-33,26.2-36.3c8.5-1.6,17.2,0.2,24.4,5
				s12.1,12.3,13.7,20.8l0.1,0.3c4.7,28.8,27.2,51.4,56.1,56.1c17.9,2.9,35.8-1.3,50.5-11.9c14.7-10.6,24.4-26.3,27.3-44.1
				c2.9-17.7,19.6-29.8,37.3-27l0,0c17.7,2.9,29.8,19.6,26.9,37.4c-9.2,56.5-53.3,100.6-109.8,109.8
				C387.3,498.1,380.1,498.7,373,498.7z M266.5,383.3c9.7,58.6,65.3,98.5,124,88.9c45.8-7.5,81.6-43.3,89.1-89.1
				c0.7-4.1-2.1-8-6.3-8.7c-4.1-0.6-8,2.2-8.7,6.3c-4,24.5-17.2,45.9-37.4,60.4c-20.1,14.5-44.7,20.3-69.1,16.3
				c-39.4-6.4-70.2-37.1-76.7-76.5c-0.4-1.9-1.5-3.6-3.2-4.7c-1.7-1.1-3.7-1.6-5.7-1.2C268.8,375.8,266.1,379.4,266.5,383.3z"/>
		</g>
		<g>
			<path d="M49.7,270.5l-15.9,0C16,270.1,1.8,255.9,1.4,238.1c-0.2-8.8,3.1-17.2,9.2-23.6s14.3-10,23.2-10.2l0.3,0l15.7,0
				c17.7,0.4,31.9,14.6,32.3,32.3c0.2,8.8-3.1,17.2-9.2,23.6s-14.3,10-23.2,10.2L49.7,270.5z M34.3,244.5h15.1
				c1.9-0.1,3.6-0.8,4.9-2.2c1.3-1.4,2-3.2,2-5.1c-0.1-3.8-3.1-6.8-6.8-6.9H34.3c-3.9,0.1-6.9,3.4-6.8,7.2
				C27.5,241.3,30.5,244.3,34.3,244.5z"/>
		</g>
		<g>
			<path d="M376.2,671c-18.2,0-36-7.4-48.8-20.3L207.6,530.8c-22.3-22.2-39.7-48.2-51.7-77.3s-18.1-59.8-18-91.3v-0.4
				c0-9.1-3-11.6-3.8-12.1c-13.5-4.3-22.6-16.7-22.7-30.9c-0.1-18,14.5-32.6,32.5-32.7h1.5c3.7-0.5,6.5-3.4,6.8-7.1
				c0.2-2.1-0.5-4.1-1.8-5.7c-1.3-1.5-3-2.4-5-2.7h-21.4c-0.4,0-0.9,0-1.3,0c-8.7-0.2-16.8-3.8-22.8-10.1c-6-6.3-9.2-14.5-9-23.3
				c0.2-8.7,3.8-16.8,10.1-22.8c6.3-6,14.5-9.2,23.1-9h45.7l5.6-0.4c4.1-0.1,7.3-3.3,7.4-7.4c0.1-4.2-3.2-7.7-7.4-7.8l-0.6,0l-5-0.4
				l-7.5,0c-17.5-0.4-31.5-14.4-31.9-31.9c-0.2-8.7,3-17,9-23.3c6-6.3,14.1-9.9,22.8-10.1l0.3,0H363c4.9-0.3,9.2-0.4,13.3-0.4
				c31.3,0,61.8,6,90.7,17.9c29,11.9,55,29.2,77.2,51.2l0.4,0.4c92.7,93.4,92.6,244.7-0.2,337.4L425.1,650.2
				C412.4,663.4,394.6,671,376.2,671C376.2,671,376.2,671,376.2,671z M141,325.6l0.8,0.3c3.5,1.1,21,8.2,21,35.9v0.5
				c-0.2,56.2,22.6,111.2,62.4,150.8L345.1,633c8.2,8.3,19.5,13,31.1,13c0,0,0,0,0,0c0,0,0,0,0,0c11.6,0,22.9-4.8,31-13.2l0.2-0.2
				l119.5-119.5c83-82.9,83.1-218.4,0.2-302l-0.3-0.3c-40.3-40-93.7-62-150.4-62c-3.7,0-7.7,0.1-12.3,0.4l-0.7,0H162.6
				c-2,0.1-3.8,0.9-5.2,2.3c-1.4,1.5-2.1,3.4-2.1,5.4c0.1,4,3.3,7.3,7.3,7.4l8.4,0l5.2,0.4c17.8,0.6,31.9,15.4,31.5,33.3
				c-0.4,17.4-14.2,31.3-31.5,31.8l-6.1,0.4l-46.5,0c-2-0.1-3.9,0.7-5.4,2.1c-1.5,1.4-2.3,3.3-2.3,5.3c0,2,0.7,4,2.1,5.4
				c1.4,1.5,3.3,2.3,5.3,2.3c0.1,0,0.2,0,0.4,0l0.3,0l23.1,0c8.7,0.7,16.7,4.8,22.4,11.4c5.7,6.7,8.4,15.2,7.7,23.9
				c-1.3,16.2-14,28.8-30.1,30.1l-1,0h-2.1c-4.1,0-7.5,3.4-7.5,7.6C136.4,321.7,138.2,324.5,141,325.6z"/>
		</g>
	</g>
</g>
</svg>
