<svg xmlns="http://www.w3.org/2000/svg" viewBox="0 0 558.44 507.36"><title>Pedidos</title><g id="Layer_2" data-name="Layer 2"><g id="Pedidos"><g id="Pedidos-2" data-name="Pedidos"><path d="M304.76,507.36a12.5,12.5,0,0,1,0-25A228.68,228.68,0,0,0,466.46,92,228.72,228.72,0,0,0,99.11,353.81l24.12-63.44a12.5,12.5,0,1,1,23.37,8.89L113,387.68A12.5,12.5,0,0,1,90.76,390a253.72,253.72,0,1,1,214,117.4Z"/><path d="M101.28,395.74a12.45,12.45,0,0,1-6.5-1.84L6,339.69a12.5,12.5,0,1,1,13-21.33l88.79,54.2a12.51,12.51,0,0,1-6.53,23.18Z"/><path d="M304.76,286.84a12.47,12.47,0,0,1-4.81-1L187.52,239.09A12.5,12.5,0,0,1,197.13,216L302,259.63,414.85,150a12.5,12.5,0,0,1,17.42,17.94L313.47,283.31A12.5,12.5,0,0,1,304.76,286.84Z"/></g></g></g></svg>