<svg xmlns="http://www.w3.org/2000/svg" viewBox="0 0 497.25 605.42"><title>Perfil</title><g id="Layer_2" data-name="Layer 2"><g id="Perfil"><g id="Perfil-2" data-name="Perfil"><path d="M246,323.17c-42.47,0-76.29-19.65-97.79-56.83-15.56-26.9-24.48-63.65-24.48-100.83,0-43.18,10.59-83.13,29.83-112.49,22.73-34.68,55.91-53,96-53,43.67,0,74.62,14.54,94.59,44.45,17.82,26.68,26.48,66.28,26.48,121.06,0,51.4-11.26,91.15-33.47,118.14C315.85,309.5,284.34,323.17,246,323.17ZM249.53,25C179.9,25,148.74,95.57,148.74,165.51c0,32.91,7.7,65.1,21.12,88.31,17,29.43,42.64,44.35,76.15,44.35,31.05,0,55.21-10.24,71.82-30.41,18.43-22.39,27.77-56.8,27.77-102.25,0-49.68-7.28-84.74-22.27-107.18C308.14,35.59,284.69,25,249.53,25Z"/><path d="M247.78,605.42a484.8,484.8,0,0,1-55.64-3.2c-63.49-7.35-125.52-27.45-184.38-59.75a12.5,12.5,0,0,1-6.49-10.82C.9,496.9.4,483,.16,476.26a88.54,88.54,0,0,1,.42-15.64C1.84,446,7.86,429.37,17.09,415c11.5-17.93,27.06-31,45-37.78,35.34-13.37,99.7-47.3,100.34-47.64a12.5,12.5,0,0,1,11.68,22.1c-2.7,1.43-66.37,35-103.18,48.92-28.57,10.81-43.78,42.87-45.45,62.18a69.45,69.45,0,0,0-.33,12.59c.22,6.31.68,18.92,1,48.65,53.89,28.61,110.44,46.53,168.19,53.3a469,469,0,0,0,145.83-6c67.59-13.39,115.9-38,132-46.95-.16-7.51-.8-23-2.95-53.58-3.34-47.41-23.41-62.48-52.51-70.53-35.47-9.81-90.58-47.69-92.9-49.3A12.5,12.5,0,1,1,338,330.33c.54.38,54,37.1,85.36,45.78,45.32,12.53,67.15,41.18,70.79,92.88,3.6,51.1,3.1,61.91,3,63.56a12.52,12.52,0,0,1-5.79,9.54c-2.32,1.46-57.74,36-145.25,53.49A500.75,500.75,0,0,1,247.78,605.42Z"/></g></g></g></svg>