<svg xmlns="http://www.w3.org/2000/svg" viewBox="0 0 561.05 580.92"><title>Promos</title><g id="Layer_2" data-name="Layer 2"><g id="Promos"><g id="Promos-2" data-name="Promos"><path d="M272.92,580.92a39.53,39.53,0,0,1-24.25-8.32l-50.54-39.1a14.54,14.54,0,0,0-8.51-3.06l-63.87-1.93A39.55,39.55,0,0,1,88.91,500L71,438.65a14.59,14.59,0,0,0-5.09-7.47L15.39,392.07a39.54,39.54,0,0,1-13-44.72L23.92,287.2a14.52,14.52,0,0,0,.28-9L6.3,216.82A39.54,39.54,0,0,1,22,173l52.81-36a14.58,14.58,0,0,0,5.54-7.15L102,69.7a39.51,39.51,0,0,1,38.51-26.23l63.87,1.94A14.45,14.45,0,0,0,213,42.88l52.81-36a39.53,39.53,0,0,1,46.57,1.41l50.53,39.11a14.55,14.55,0,0,0,8.51,3l63.87,1.94a39.54,39.54,0,0,1,36.85,28.51L490,142.26a14.56,14.56,0,0,0,5.09,7.48l50.54,39.1a39.53,39.53,0,0,1,13,44.73l-21.57,60.14a14.55,14.55,0,0,0-.28,9l17.9,61.34A39.54,39.54,0,0,1,539,407.94l-52.81,36a14.53,14.53,0,0,0-5.54,7.15l-21.58,60.14a39.47,39.47,0,0,1-38.5,26.23l-63.87-1.93A14.68,14.68,0,0,0,348,538l-52.81,36A39.64,39.64,0,0,1,272.92,580.92ZM139.25,68.45a14.6,14.6,0,0,0-13.77,9.69l-21.57,60.15a39.41,39.41,0,0,1-15,19.37l-52.81,36a14.59,14.59,0,0,0-5.81,16.19l17.9,61.34a39.37,39.37,0,0,1-.75,24.49L25.88,355.79a14.6,14.6,0,0,0,4.81,16.51l50.54,39.11A39.36,39.36,0,0,1,95,431.65L112.91,493a14.61,14.61,0,0,0,13.6,10.53l63.87,1.93a39.49,39.49,0,0,1,23.06,8.27L264,552.83a14.59,14.59,0,0,0,17.19.52l52.81-36a39.31,39.31,0,0,1,23.51-6.86l63.87,1.93a14.56,14.56,0,0,0,14.21-9.68l21.58-60.14a39.41,39.41,0,0,1,15-19.37l52.81-36a14.59,14.59,0,0,0,5.81-16.19l-17.9-61.34a39.41,39.41,0,0,1,.74-24.48l21.58-60.14a14.61,14.61,0,0,0-4.81-16.52l-50.54-39.1A39.44,39.44,0,0,1,466,149.27L448.14,87.92a14.59,14.59,0,0,0-13.6-10.52l-63.87-1.94a39.36,39.36,0,0,1-23.06-8.27L297.08,28.08a14.59,14.59,0,0,0-17.19-.52l-52.81,36a39.38,39.38,0,0,1-23.51,6.86L139.7,68.46Z"/><path d="M210.79,385a12.5,12.5,0,0,1-9.91-20.1L334.94,190.05a12.5,12.5,0,0,1,19.84,15.22L220.72,380.13A12.47,12.47,0,0,1,210.79,385Z"/><path d="M344.24,398.75c-27.75,0-50.32-23.84-50.32-53.13s22.57-53.14,50.32-53.14,50.32,23.84,50.32,53.14S372,398.75,344.24,398.75Zm0-81.27c-14,0-25.32,12.62-25.32,28.14s11.36,28.13,25.32,28.13,25.32-12.62,25.32-28.13S358.2,317.48,344.24,317.48Z"/><path d="M204.32,281.86C176.57,281.86,154,258,154,228.73s22.58-53.14,50.33-53.14,50.31,23.84,50.31,53.14S232.06,281.86,204.32,281.86Zm0-81.27c-14,0-25.33,12.62-25.33,28.14s11.36,28.13,25.33,28.13,25.31-12.62,25.31-28.13S218.28,200.59,204.32,200.59Z"/></g></g></g></svg>