<svg xmlns="http://www.w3.org/2000/svg" viewBox="0 0 514.31 510.35"><title>Restaurante</title><g id="Layer_2" data-name="Layer 2"><g id="Retaurante"><path d="M514.31,205.63a74.89,74.89,0,0,0-2-17.31,11,11,0,0,0-.32-1.88l-44.54-177A12.49,12.49,0,0,0,455.31,0H55.37A12.49,12.49,0,0,0,43.2,9.66l-41.3,177a12.31,12.31,0,0,0-.31,3.57A74.91,74.91,0,0,0,0,205.63c0,21.43,8.1,40.22,21.56,53.63V510.35h470v-251A74.74,74.74,0,0,0,514.31,205.63ZM26.68,192.73a12.45,12.45,0,0,0,.41-4L65.29,25H445.57l41.68,165.66a12.53,12.53,0,0,0,.38,2.07,50.05,50.05,0,0,1-48.33,62.91c-24.28,0-43.36-14.76-48.62-37.59a12.49,12.49,0,0,0-12.06-9.7h-.12a12.5,12.5,0,0,0-12.13,9.47,49.89,49.89,0,0,1-48.5,37.82c-24.28,0-43.37-14.76-48.62-37.59a12.49,12.49,0,0,0-12.06-9.7h-.12a12.5,12.5,0,0,0-12.13,9.47,49.89,49.89,0,0,1-48.5,37.82c-24.28,0-43.37-14.76-48.62-37.59a12.49,12.49,0,0,0-12.06-9.7h-.12a12.5,12.5,0,0,0-12.13,9.47A49.89,49.89,0,0,1,75,255.64c-29,0-50-21-50-50A50.17,50.17,0,0,1,26.68,192.73Zm70.17,84.68a74.87,74.87,0,0,0,38.51-27.17c13.53,18.87,35.67,30.4,61.08,30.4a74.88,74.88,0,0,0,60.35-30.4c13.53,18.87,35.67,30.4,61.08,30.4a74.88,74.88,0,0,0,60.35-30.4,72.09,72.09,0,0,0,35.2,26.12V379.27H96.85ZM466.6,485.35h-420V275.43A78.71,78.71,0,0,0,75,280.64l1.84,0V399.27H433.42V280.42c1.94.14,3.9.22,5.88.22a74.39,74.39,0,0,0,27.3-5.17Z"/></g></g></svg>