<svg xmlns="http://www.w3.org/2000/svg" viewBox="0 0 505.46 495.47"><title>UCoins</title><g id="Layer_2" data-name="Layer 2"><g id="UCoins"><path d="M91,282.34V42.21C91,18.68,109.64,0,133.86,0a41.94,41.94,0,0,1,42.21,42.21V278.88c0,90,46.36,137.7,122.48,137.7,75.43,0,121.79-45,121.79-134.24V42.21C420.34,18.68,439,0,463.25,0a41.93,41.93,0,0,1,42.21,42.21v236c0,144.63-81.66,217.29-208.29,217.29C171.22,495.47,91,422.81,91,282.34Z"/><path d="M233.05,156.8H35.5a35.5,35.5,0,0,1,0-71H233.05a35.5,35.5,0,0,1,0,71Z"/><path d="M233.05,253.3H35.5a35.5,35.5,0,0,1,0-71H233.05a35.5,35.5,0,0,1,0,71Z"/></g></g></svg>